<?xml version="1.0" standalone="no"?>
<!DOCTYPE svg PUBLIC "-//W3C//DTD SVG 20010904//EN"
 "http://www.w3.org/TR/2001/REC-SVG-20010904/DTD/svg10.dtd">
<svg version="1.0" xmlns="http://www.w3.org/2000/svg"
 width="786.000000pt" height="180.000000pt" viewBox="0 0 786.000000 180.000000"
 preserveAspectRatio="xMidYMid meet">

<g transform="translate(0.000000,180.000000) scale(0.100000,-0.100000)"
fill="#000000" stroke="none">
<path d="M469 1776 c-36 -12 -88 -35 -116 -50 -92 -51 -232 -183 -218 -206 4
-6 1 -9 -5 -8 -6 2 -22 -16 -36 -39 l-25 -42 157 -75 c86 -42 160 -76 165 -76
5 0 9 -218 9 -490 l0 -490 415 0 415 1 0 485 c0 364 -3 483 -12 478 -7 -4 -8
-3 -4 4 4 7 13 12 20 12 7 0 83 34 170 75 145 70 156 77 146 95 -6 12 -16 17
-22 14 -7 -4 -8 -2 -4 5 4 6 0 24 -10 39 -32 49 -158 173 -171 168 -7 -3 -12
0 -10 5 3 15 -102 73 -179 98 -59 19 -86 21 -342 21 -264 0 -280 -2 -343 -24z
m640 -282 c75 -63 31 -194 -66 -194 -92 0 -144 90 -96 170 32 56 111 67 162
24z m-239 -519 c0 -138 1 -145 20 -145 16 0 20 -7 20 -35 l0 -35 -75 0 -75 0
0 34 c0 25 5 35 20 39 18 5 20 13 20 99 -1 82 -2 91 -15 75 -13 -18 -14 -18
-39 0 -32 23 -32 28 0 75 25 35 30 38 75 38 l49 0 0 -145z"/>
<path d="M13 1320 l-12 -31 82 -37 c228 -105 238 -108 253 -87 8 10 14 23 14
28 0 8 -302 157 -318 157 -4 0 -13 -14 -19 -30z"/>
<path d="M1433 1275 c-84 -41 -153 -78 -153 -82 0 -5 6 -18 14 -28 15 -21 25
-18 253 87 l82 37 -12 31 c-6 16 -16 30 -22 29 -5 0 -79 -34 -162 -74z"/>
<path d="M2180 905 l0 -345 64 0 64 0 4 129 c3 121 5 131 27 155 26 27 67 34
101 16 29 -16 40 -66 40 -186 l0 -114 65 0 65 0 0 158 c0 140 -2 161 -20 190
-43 70 -173 93 -240 43 -16 -11 -32 -21 -35 -21 -3 0 -5 72 -5 160 l0 160 -65
0 -65 0 0 -345z"/>
<path d="M1803 1216 c-94 -31 -181 -102 -222 -181 -120 -234 78 -503 355 -482
69 5 174 40 174 58 0 5 -12 34 -27 64 -20 41 -31 54 -43 49 -150 -65 -294 -12
-329 124 -14 52 -1 112 35 160 48 62 146 92 229 69 28 -8 57 -17 66 -21 11 -5
22 8 44 55 29 59 29 61 10 72 -70 41 -217 58 -292 33z"/>
<path d="M3766 1209 c-39 -31 -37 -89 4 -121 l31 -24 -26 -48 c-43 -81 -10
-91 58 -17 70 79 85 164 35 211 -28 26 -68 26 -102 -1z"/>
<path d="M4720 990 c0 -183 -3 -237 -15 -259 -24 -47 -74 -55 -119 -20 -15 12
-29 20 -31 18 -2 -2 -13 -28 -25 -58 -19 -50 -20 -55 -4 -72 28 -31 98 -52
157 -47 72 6 127 36 154 84 22 38 23 48 23 312 l0 272 -70 0 -70 0 0 -230z"/>
<path d="M4069 971 c-68 -22 -99 -61 -99 -124 0 -48 33 -85 107 -119 46 -21
63 -33 63 -48 0 -32 -45 -37 -98 -11 -51 25 -53 24 -88 -41 -13 -25 -13 -28 8
-42 43 -27 100 -39 162 -34 103 9 152 47 163 125 8 61 -27 102 -115 137 -71
28 -87 46 -56 64 15 8 71 2 104 -12 12 -5 22 6 38 39 l22 46 -28 10 c-36 15
-150 21 -183 10z"/>
<path d="M5072 967 c-155 -57 -193 -261 -66 -365 92 -76 264 -63 334 25 l21
27 -49 25 -50 24 -27 -21 c-57 -45 -164 -12 -165 51 0 15 14 17 150 17 149 0
150 0 150 23 0 36 -21 100 -43 131 -44 62 -170 93 -255 63z m138 -97 c39 -39
27 -50 -55 -50 -68 0 -75 2 -75 19 0 47 92 69 130 31z"/>
<path d="M5645 965 c-16 -9 -38 -24 -47 -32 -17 -15 -18 -14 -18 10 0 27 -1
27 -70 27 l-70 0 0 -205 0 -205 70 0 70 0 0 125 c0 120 1 127 25 150 26 26 80
34 114 16 15 -8 22 -1 45 46 18 37 24 59 17 66 -18 18 -104 19 -136 2z"/>
<path d="M5914 961 c-53 -24 -74 -55 -74 -107 0 -56 29 -90 107 -126 63 -28
74 -43 51 -66 -18 -18 -49 -14 -94 12 l-41 23 -27 -44 c-32 -54 -27 -65 46
-89 63 -21 163 -15 210 13 44 25 72 83 63 130 -9 48 -50 85 -124 112 -45 16
-61 27 -61 41 0 28 60 31 120 6 12 -5 22 6 38 39 l22 46 -28 10 c-15 6 -58 13
-97 16 -55 3 -79 0 -111 -16z"/>
<path d="M6319 952 c-68 -35 -111 -99 -117 -175 -8 -109 83 -214 197 -225 73
-7 147 15 192 56 22 19 39 38 39 41 0 4 -22 18 -49 31 l-49 23 -28 -22 c-53
-41 -147 -15 -156 44 -3 19 3 20 145 23 l147 3 0 37 c-1 151 -175 240 -321
164z m167 -87 c14 -14 22 -30 19 -35 -3 -6 -40 -10 -81 -10 -81 0 -93 11 -54
50 29 29 84 27 116 -5z"/>
<path d="M7319 971 c-68 -22 -99 -61 -99 -124 0 -48 33 -85 107 -119 46 -21
63 -33 63 -48 0 -32 -45 -37 -98 -11 -51 25 -53 24 -88 -41 -13 -25 -13 -28 8
-42 44 -27 100 -39 163 -34 77 7 113 23 142 67 52 77 17 150 -95 195 -74 29
-90 50 -50 65 21 7 62 2 98 -13 12 -5 22 6 38 39 l22 46 -28 10 c-36 15 -150
21 -183 10z"/>
<path d="M2702 811 c3 -144 5 -162 24 -188 41 -54 79 -68 189 -68 118 0 162
17 197 74 21 32 23 51 27 189 l3 152 -70 0 -70 0 -4 -136 c-3 -129 -4 -137
-27 -155 -31 -26 -74 -24 -107 4 -26 23 -27 27 -32 155 l-5 132 -64 0 -64 0 3
-159z"/>
<path d="M3172 962 c2 -5 44 -83 95 -173 l92 -164 -70 -138 -70 -137 80 0 79
0 107 208 c59 114 132 253 162 310 l55 103 -82 -3 -82 -3 -47 -103 c-35 -78
-48 -99 -56 -88 -6 7 -33 55 -60 105 l-49 91 -79 0 c-43 0 -77 -4 -75 -8z"/>
<path d="M6661 948 c7 -13 50 -90 97 -173 l85 -150 -67 -130 c-37 -72 -67
-134 -67 -138 1 -4 35 -7 77 -5 l76 3 159 305 c87 167 159 306 159 307 0 2
-35 3 -78 3 l-79 0 -49 -107 -50 -107 -58 107 -57 107 -80 0 c-80 0 -80 0 -68
-22z"/>
</g>
</svg>
